<svg width="40" height="40" viewBox="0 0 40 40" fill="none" xmlns="http://www.w3.org/2000/svg">
<path d="M0 8C0 3.58172 3.58172 0 8 0H32C36.4183 0 40 3.58172 40 8V32C40 36.4183 36.4183 40 32 40H8C3.58172 40 0 36.4183 0 32V8Z" fill="#5F6368"/>
<path d="M20.3871 9.65527V32.0001" stroke="white" stroke-width="2.21857"/>
<path d="M20.3871 14.0147L11.3445 8L8 14.0147L11.3445 16.2759" stroke="white" stroke-width="2.21857"/>
<path d="M19.6129 14.0147L28.6555 8L32 14.0147L28.6555 16.2759" stroke="white" stroke-width="2.21857"/>
<path d="M19.6129 19.5139L25.8297 23.7241L28.129 19.5139L25.8297 17.931" stroke="white" stroke-width="2.21857"/>
<path d="M20.3871 19.5139L14.1703 23.7241L11.871 19.5139L14.1703 17.931" stroke="white" stroke-width="2.21857"/>
</svg>
